<?xml version="1.0" encoding="utf-8"?>
<svg width="66px" height="33px" viewBox="0 0 66 33" version="1.1" xmlns:xlink="http://www.w3.org/1999/xlink" xmlns="http://www.w3.org/2000/svg">
  <defs>
    <linearGradient x1="-1.8096944E-06" y1="0.49999684" x2="0.9999982" y2="0.49999684" id="gradient_1">
      <stop offset="0" stop-color="#035494" />
      <stop offset="1" stop-color="#299DF4" />
    </linearGradient>
    <path d="M0 0L65.6022 0L65.6022 32.0076L0 32.0076L0 0Z" transform="translate(0.15994595 0.58103573)" id="path_1" />
    <path d="M57.6514 29.6367C55.9996 29.6272 54.346 29.629 52.693 29.6308L52.693 29.6308C51.5913 29.6314 50.4895 29.6308 49.3877 29.6308L49.3877 29.6308L24.7013 29.606C24.0039 29.606 23.2802 29.6119 22.5441 29.616L22.5441 29.616C19.9071 29.6384 17.0988 29.6608 14.6794 29.2966L14.6794 29.2966C5.30742 27.8435 -2.34026 20.2328 0.662447 10.5061L0.662447 10.5061C0.722501 10.3806 0.710609 10.3953 0.760555 10.2574L0.760555 10.2574C0.817041 10.1036 0.866393 9.9121 0.961528 9.75829L0.961528 9.75829C1.1078 9.52199 1.13693 9.31986 1.24099 9.18315L1.24099 9.18315L1.51628 8.89558C0.76115 17.4502 7.47591 24.0909 16.179 23.5747L16.179 23.5747L60.7766 23.5747L64.7764 29.6231C64.4321 29.6555 63.4635 29.6655 62.3332 29.6655L62.3332 29.6655C60.5934 29.6655 58.4695 29.6414 57.6514 29.6367M30.3755 9.97574C25.3001 1.30027 19.5515 -1.09812 5.95137 1.82533L5.95137 1.82533C5.73553 1.88072 5.52266 1.94318 5.3098 1.98679L5.3098 1.98679C5.05412 2.03806 4.99526 2.1182 4.80737 2.0911L4.80737 2.0911C4.67834 2.07283 4.7485 2.0911 4.67656 2.0416L4.67656 2.0416C4.76218 1.95438 4.71996 1.9921 4.82639 1.92315L4.82639 1.92315C5.0565 1.77288 5.88477 1.51065 6.13628 1.44288L6.13628 1.44288C6.34974 1.38572 6.31407 1.37747 6.53764 1.32856L6.53764 1.32856C16.2652 -1.38864 30.6722 -0.557154 35.2322 9.72058L35.2322 9.72058C35.2791 9.88793 35.3006 9.81604 35.3041 10.0288L35.3041 10.0288L30.3755 9.97574Z" transform="translate(0.29544505 0.48526165)" id="path_2" />
    <clipPath id="mask_1">
      <use xlink:href="#path_1" />
    </clipPath>
    <clipPath id="mask_2">
      <use xlink:href="#path_2" />
    </clipPath>
  </defs>
  <g id="g1706" transform="matrix(1 2.1456883E-07 2.1456883E-07 -1 0 33)">
    <g id="g618">
      <g id="g620-Clipped">
        <path d="M0 0L65.6022 0L65.6022 32.0076L0 32.0076L0 0Z" transform="translate(0.15994595 0.58103573)" id="path622" fill="none" fill-rule="evenodd" stroke="none" />
        <g clip-path="url(#mask_1)">
          <g id="g620" transform="translate(5.9459457 12.964286)">
            <g id="g626" transform="translate(0.2600162 0.469425)">
              <path d="M5.89897 1.287L3.12341 1.287L2.48897 0L0 0L4.49157 7.79625L7.14762 7.79625L8.58416 0L6.03395 0L5.89897 1.287ZM5.71941 2.97354L5.39654 5.77618L3.98081 2.97354L5.71941 2.97354ZM10.9239 7.79625L14.5438 7.79625C15.2525 7.79625 15.8103 7.7002 16.2134 7.50986C16.6159 7.31716 16.9263 7.04491 17.1398 6.69075C17.3526 6.33541 17.4805 5.91937 17.5185 5.44029C17.5572 4.9612 17.5239 4.45618 17.4198 3.92464C17.2581 3.09846 17.0363 2.45437 16.7563 1.9912C16.4744 1.52861 16.1349 1.1438 15.7365 0.835018C15.3364 0.526232 14.9285 0.319393 14.5093 0.212143C14.2221 0.141429 13.9581 0.0889821 13.7143 0.0524464C13.4705 0.0182679 13.2375 0 13.0157 0L9.39519 0L10.9239 7.79625ZM13.0139 6.03016L12.1785 1.77139L12.7755 1.77139C13.2821 1.77139 13.6543 1.8262 13.8921 1.93521C14.1305 2.046 14.3381 2.24164 14.5158 2.52332C14.6924 2.80441 14.8417 3.25639 14.9636 3.8775C15.1253 4.70309 15.1003 5.26762 14.8898 5.57288C14.6799 5.87754 14.2566 6.03016 13.6216 6.03016L13.0139 6.03016ZM18.6637 7.79625L21.3674 7.79625L22.4454 5.1645L24.5526 7.79625L27.2419 7.79625L23.2879 3.26582L22.6475 0L20.2061 0L20.8465 3.26582L18.6637 7.79625Z" transform="translate(0.04697297 0.48085713)" id="path628" fill="#025493" stroke="none" />
            </g>
            <g id="g630" transform="translate(33.71405 5.900459)">
              <path d="M1.49124 2.60641L15.4595 2.60641L13.9682 0L0 0L1.49124 2.60641Z" transform="translate(0.29254055 0.34001786)" id="path632" fill="#1577C1" fill-rule="evenodd" stroke="none" />
            </g>
            <g id="g634" transform="translate(32.22304 3.294225)">
              <path d="M1.49124 2.60641L15.4595 2.60641L13.9682 0L0 0L1.49124 2.60641Z" transform="translate(0.29254055 0.34001786)" id="path636" fill="#E30613" fill-rule="evenodd" stroke="none" />
            </g>
            <g id="g638" transform="translate(30.73186 0.6879911)">
              <path d="M1.49124 2.60641L15.4595 2.60641L13.9682 0L0 0L1.49124 2.60641Z" transform="translate(0.29254055 0.34001786)" id="path640" fill="#009641" fill-rule="evenodd" stroke="none" />
            </g>
            <g id="g642" transform="translate(38.468548 3.543434)">
              <path d="M1.22093 1.93051C1.60385 1.98295 1.91125 1.84624 2.05574 1.59697C1.91303 1.73604 1.6853 1.80381 1.41417 1.76669C0.909359 1.69715 0.444981 1.28819 0.377791 0.853294C0.310602 0.417812 0.665575 0.120812 1.17098 0.190347C1.38444 0.219812 1.59136 0.309972 1.7632 0.437258C1.53844 0.215687 1.23817 0.0542225 0.924818 0.0112046C0.337954 -0.0695275 -0.0711275 0.294651 0.0103319 0.825008C0.092386 1.35478 0.634062 1.84978 1.22093 1.93051" transform="translate(0.5628573 0.42663464)" id="path644" fill="#FFFFFF" fill-rule="evenodd" stroke="none" />
            </g>
            <g id="g646" transform="translate(40.596302 4.129891)">
              <path d="M0.472689 0.740385L0.475122 0.518511L0.707512 0.631859L0.539607 0.43169L0.747055 0.370192L0.506756 0.308695L0.567591 0.108525L0.395428 0.221271L0.274366 0L0.271325 0.221271L0.0389345 0.108525L0.206839 0.308695L0 0.370192L0.23969 0.43169L0.179464 0.631859L0.351019 0.518511L0.472689 0.740385Z" transform="translate(0.13566226 0.46545365)" id="path648" fill="#FFFFFF" fill-rule="evenodd" stroke="none" />
            </g>
          </g>
        </g>
      </g>
    </g>
    <g id="g686" transform="translate(0 2.357143)">
      <g id="g688-Clipped">
        <path d="M57.6514 29.6367C55.9996 29.6272 54.346 29.629 52.693 29.6308L52.693 29.6308C51.5913 29.6314 50.4895 29.6308 49.3877 29.6308L49.3877 29.6308L24.7013 29.606C24.0039 29.606 23.2802 29.6119 22.5441 29.616L22.5441 29.616C19.9071 29.6384 17.0988 29.6608 14.6794 29.2966L14.6794 29.2966C5.30742 27.8435 -2.34026 20.2328 0.662447 10.5061L0.662447 10.5061C0.722501 10.3806 0.710609 10.3953 0.760555 10.2574L0.760555 10.2574C0.817041 10.1036 0.866393 9.9121 0.961528 9.75829L0.961528 9.75829C1.1078 9.52199 1.13693 9.31986 1.24099 9.18315L1.24099 9.18315L1.51628 8.89558C0.76115 17.4502 7.47591 24.0909 16.179 23.5747L16.179 23.5747L60.7766 23.5747L64.7764 29.6231C64.4321 29.6555 63.4635 29.6655 62.3332 29.6655L62.3332 29.6655C60.5934 29.6655 58.4695 29.6414 57.6514 29.6367M30.3755 9.97574C25.3001 1.30027 19.5515 -1.09812 5.95137 1.82533L5.95137 1.82533C5.73553 1.88072 5.52266 1.94318 5.3098 1.98679L5.3098 1.98679C5.05412 2.03806 4.99526 2.1182 4.80737 2.0911L4.80737 2.0911C4.67834 2.07283 4.7485 2.0911 4.67656 2.0416L4.67656 2.0416C4.76218 1.95438 4.71996 1.9921 4.82639 1.92315L4.82639 1.92315C5.0565 1.77288 5.88477 1.51065 6.13628 1.44288L6.13628 1.44288C6.34974 1.38572 6.31407 1.37747 6.53764 1.32856L6.53764 1.32856C16.2652 -1.38864 30.6722 -0.557154 35.2322 9.72058L35.2322 9.72058C35.2791 9.88793 35.3006 9.81604 35.3041 10.0288L35.3041 10.0288L30.3755 9.97574Z" transform="translate(0.29544505 0.48526165)" id="path690" fill="none" fill-rule="evenodd" stroke="none" />
        <g clip-path="url(#mask_2)">
          <g id="g688">
            <g id="g694">
              <g id="g696">
                <path d="M57.6514 29.6367C55.9996 29.6272 54.346 29.629 52.693 29.6308L52.693 29.6308C51.5913 29.6314 50.4895 29.6308 49.3877 29.6308L49.3877 29.6308L24.7013 29.606C24.0039 29.606 23.2802 29.6119 22.5441 29.616L22.5441 29.616C19.9071 29.6384 17.0988 29.6608 14.6794 29.2966L14.6794 29.2966C5.30742 27.8435 -2.34026 20.2328 0.662447 10.5061L0.662447 10.5061C0.722501 10.3806 0.710609 10.3953 0.760555 10.2574L0.760555 10.2574C0.817041 10.1036 0.866393 9.9121 0.961528 9.75829L0.961528 9.75829C1.1078 9.52199 1.13693 9.31986 1.24099 9.18315L1.24099 9.18315L1.51628 8.89558C0.76115 17.4502 7.47591 24.0909 16.179 23.5747L16.179 23.5747L60.7766 23.5747L64.7764 29.6231C64.4321 29.6555 63.4635 29.6655 62.3332 29.6655L62.3332 29.6655C60.5934 29.6655 58.4695 29.6414 57.6514 29.6367M30.3755 9.97574C25.3001 1.30027 19.5515 -1.09812 5.95137 1.82533L5.95137 1.82533C5.73553 1.88072 5.52266 1.94318 5.3098 1.98679L5.3098 1.98679C5.05412 2.03806 4.99526 2.1182 4.80737 2.0911L4.80737 2.0911C4.67834 2.07283 4.7485 2.0911 4.67656 2.0416L4.67656 2.0416C4.76218 1.95438 4.71996 1.9921 4.82639 1.92315L4.82639 1.92315C5.0565 1.77288 5.88477 1.51065 6.13628 1.44288L6.13628 1.44288C6.34974 1.38572 6.31407 1.37747 6.53764 1.32856L6.53764 1.32856C16.2652 -1.38864 30.6722 -0.557154 35.2322 9.72058L35.2322 9.72058C35.2791 9.88793 35.3006 9.81604 35.3041 10.0288L35.3041 10.0288L30.3755 9.97574Z" transform="translate(0.29544505 0.48526165)" id="path704" fill="url(#gradient_1)" stroke="none" />
              </g>
            </g>
          </g>
        </g>
      </g>
    </g>
  </g>
</svg>