<?xml version="1.0" encoding="utf-8"?>
<svg width="64px" height="43px" viewBox="0 0 64 43" version="1.1" xmlns:xlink="http://www.w3.org/1999/xlink" xmlns="http://www.w3.org/2000/svg">
  <g id="Azerbaijan_Airlines_logo">
    <path d="M18.5553 12.345C17.3305 15.9703 13.8332 18.5953 9.71914 18.5953C4.5885 18.5953 0.414526 14.5154 0.414526 9.50048C0.414526 4.48551 4.5885 0.40518 9.71914 0.40518C11.2813 0.40518 12.7539 0.785214 14.0474 1.45294L14.3808 1.16669C12.9958 0.423546 11.4074 0 9.71914 0C4.35996 0 0 4.26164 0 9.50048C0 14.7388 4.35946 19 9.71914 19C14.0727 19 17.7668 16.1879 19 12.3237L18.5553 12.345Z" transform="translate(22 3.9634147)" id="path23491" fill="#003366" stroke="none" />
    <path d="M0 2.96365C6.06595 2.40804 12.0757 1.48395 18 0C17.908 0.407274 17.8167 0.813483 17.7246 1.22076C10.1464 2.93866 4.8596 3.09657 0 2.96365" transform="translate(25 13.963414)" id="path23493" fill="#00B2E2" stroke="none" />
    <path d="M0 3C5.85272 2.38124 11.8454 1.40101 18 0C17.903 0.290653 17.8066 0.580941 17.7102 0.871607C10.8835 2.31599 5.06218 2.9607 1.18355e-13 3" transform="translate(26 12.963414)" id="path23495" fill="#00B2E2" stroke="none" />
    <path d="M1.14961e-13 5C5.57571 3.77315 11.2531 2.05563 17 0C16.9064 0.372117 16.8117 0.744235 16.7175 1.11682C10.6291 3.2263 4.9978 4.61514 0 5" transform="translate(27 9.963414)" id="path23497" fill="#57C8E7" stroke="none" />
    <path d="M0 7C5.74874 5.37487 11.4034 2.92953 17 0C16.8819 0.492322 16.7636 0.984664 16.6454 1.47699C9.94239 4.57401 4.26314 6.55705 1.17558e-13 7" transform="translate(27 8.963414)" id="path23499" fill="#98DAE9" stroke="none" />
    <path d="M0 9C6.28568 6.08548 11.3961 3.06572 16 0C15.8732 0.544001 15.7459 1.08798 15.6191 1.63196C10.3989 4.82742 5.18879 7.47429 0 9" transform="translate(30 5.9634147)" id="path23501" fill="#57C8E7" stroke="none" />
    <path d="M0 11C6.22863 7.40088 11.6316 3.73947 16 0C15.8444 0.638451 15.6876 1.2779 15.5313 1.91585C10.3635 5.99196 5.07492 8.79901 1.1534e-13 11" transform="translate(31 2.9634147)" id="path23503" fill="#00B2E2" stroke="none" />
    <path d="M15 0C14.433 0.014478 13.8671 0.0273273 13.3001 0.0407195C11.1989 2.4162 9.08004 4.47134 6.94984 6.34837C4.64152 8.38195 2.32179 10.2058 0 12C5.08578 8.8263 10.1322 5.27194 15 1.80976e-05" transform="translate(32 0.9634146)" id="path23505" fill="#00B2E2" stroke="none" />
    <path d="M0 0L15 0L15 1L0 1L0 0Z" transform="translate(0 40.963413)" id="rect23507" fill="#00B2E2" stroke="none" />
    <path d="M0 0L15 0L15 1L0 1L0 0Z" transform="translate(49 40.963413)" id="rect23509" fill="#00B2E2" stroke="none" />
    <path d="M3.49743 1.13413L3.49743 1.13413L1.86303 4.47027L5.12198 4.47027L3.49743 1.13413ZM1.55241 5.1375L0.714757 6.81113C0.528285 7.2033 -0.154459 6.9277 0.0319149 6.50428L3.15626 0.201905C3.21848 0.0634959 3.36283 0 3.49743 0C3.63205 0 3.75628 0.0634959 3.82875 0.201905L6.94327 6.47247C7.21247 6.9272 6.44679 7.19218 6.25057 6.77934L5.44295 5.13696L1.55241 5.13696L1.55241 5.1375Z" transform="translate(1 30.963415)" id="path23511" fill="#003366" stroke="none" />
    <path d="M1.12371 6.24208L5.6126 6.24208C6.10647 6.24208 6.11698 6.96767 5.6126 7L0.419468 7C0.0097606 7 -0.116465 6.66027 0.114955 6.36345L4.82475 0.725611L0.567261 0.725611C0.104957 0.725611 0.0939045 0.0328731 0.567261 0L5.57053 0C6.00181 0 6.1175 0.34081 5.87558 0.659344L1.12371 6.24208Z" transform="translate(9 30.963415)" id="path23513" fill="#003366" stroke="none" />
    <path d="M0.719281 6.27387L4.66283 6.27387C5.08192 6.27387 5.14186 7 4.66283 7L0.459037 7C0.17982 7 0 6.78057 0 6.51662L0 0.473825C0 0.220476 0.179915 0 0.459037 0L4.67282 0C5.10189 0 5.08192 0.704397 4.66338 0.704397L0.719829 0.704397L0.719829 3.18172L4.47408 3.18172C4.87318 3.18172 4.89315 3.88559 4.47408 3.88559L0.719829 3.88559L0.719281 6.27387Z" transform="translate(15 30.963415)" id="path23515" fill="#003366" stroke="none" />
    <path d="M0.681768 3.80818L0.681768 3.80818L2.57038 3.80818C3.79455 3.80818 4.32714 3.14605 4.30844 2.33295C4.29961 1.442 3.65426 0.726893 2.57038 0.726893L0.681768 0.726893L0.681768 3.80818ZM0.681768 4.49149L0.681768 6.596C0.681768 7.0955 0 7.0955 0 6.60801L0 0.379783C0 0.152013 0.139793 0 0.345558 0L2.56056 0C4.1775 0 5 1.06363 5 2.33333C5 3.42822 4.48565 4.22066 3.33631 4.44789L4.85084 6.34686C5.20575 6.7595 4.69178 7.23676 4.38325 6.86757L2.49557 4.49185L0.681768 4.49185L0.681768 4.49149Z" transform="translate(21 30.963415)" id="path23517" fill="#003366" stroke="none" />
    <path d="M0.786316 6.28553L0.786316 6.28553L3.19967 6.28553C4.14713 6.28553 5.19213 6.03166 5.19213 4.92072C5.19213 4.05096 4.45971 3.6773 3.5225 3.6773L0.786316 3.6773L0.786316 6.28553ZM0.786316 0.716056L0.786316 0.716056L0.786316 2.9607L2.98355 2.9607C3.90999 2.9607 4.71785 2.70841 4.71785 1.90435C4.71785 0.957746 3.61897 0.716056 2.95176 0.716056L0.786316 0.716056ZM3.19967 7L0.398281 7C0.183772 7 0 6.82452 0 6.60408L0 0.395919C0 0.176485 0.183324 0 0.398281 0L2.95176 0C3.95311 0 5.5047 0.341852 5.5047 1.90435C5.5047 2.47678 5.23524 2.9835 4.67475 3.21405C5.46105 3.46794 6 4.02922 6 4.92072C6 6.56007 4.55671 7 3.19967 7L3.19967 7Z" transform="translate(27 30.963415)" id="path23519" fill="#003366" stroke="none" />
    <path d="M3.49744 1.13413L3.49744 1.13413L1.86329 4.47027L5.12226 4.47027L3.49744 1.13413ZM1.55218 5.1375L0.71467 6.81113C0.528226 7.2033 -0.154437 6.9277 0.0319095 6.50428L3.15632 0.201905C3.21834 0.0634959 3.36286 0 3.49744 0C3.63204 0 3.75572 0.0634959 3.82871 0.201905L6.94328 6.47247C7.21244 6.9272 6.44687 7.19218 6.25018 6.77934L5.44268 5.13696L1.55218 5.13696L1.55218 5.1375Z" transform="translate(35 30.963415)" id="path23521" fill="#003366" stroke="none" />
    <path d="M0.60365 0.387926C0.60365 -0.134597 1.39635 -0.123993 1.39635 0.387926L1.39635 6.63211C1.39635 7.11225 0.60365 7.1329 0.60365 6.63211L0.60365 0.387926Z" transform="translate(41 30.963415)" id="path23523" fill="#003366" stroke="none" />
    <path d="M4.3027 0.711846L2.3635 0.711846C1.85926 0.711846 1.85926 0 2.3635 0L4.63616 0C4.81758 0 4.97974 0.162429 4.99995 0.356723L4.99995 4.48759C5.00949 5.94305 3.72721 7 2.39432 7C1.11148 7 0.0716455 6.02933 0.000912454 4.73528C-0.0294508 4.23883 0.707785 4.14199 0.748193 4.72328C0.808728 5.70505 1.54549 6.27717 2.39432 6.27717C3.37402 6.27717 4.3027 5.51082 4.3027 4.48669L4.3027 0.711846Z" transform="translate(44 30.963415)" id="path23525" fill="#003366" stroke="none" />
    <path d="M3.49725 1.13413L3.49725 1.13413L1.86301 4.47027L5.12166 4.47027L3.49725 1.13413ZM1.5519 5.1375L0.714323 6.81113C0.528455 7.2033 -0.154815 6.9277 0.0320504 6.50428L3.15612 0.201905C3.21814 0.0634959 3.36267 0 3.49725 0C3.63186 0 3.75608 0.0634959 3.82855 0.201905L6.9433 6.47247C7.2125 6.9272 6.44635 7.19218 6.25017 6.77934L5.44313 5.13696L1.5519 5.13696L1.5519 5.1375Z" transform="translate(49 30.963415)" id="path23527" fill="#003366" stroke="none" />
    <path d="M4.28538 0.353649C4.28538 -0.0962308 5 -0.117465 5 0.353649L5 6.49564C5 7.03148 4.3512 7.08402 4.15421 6.70893L0.639826 1.34841L0.714636 2.82542L0.714636 6.6023C0.714636 7.12699 0 7.13812 0 6.6023L0 0.471433C0 -0.0638673 0.526102 -0.149829 0.761174 0.247014L4.37899 5.75768L4.28499 4.14167L4.28499 0.353649L4.28538 0.353649Z" transform="translate(58 30.963415)" id="path23529" fill="#003366" stroke="none" />
    <path d="M2.49835 0.486094L2.49835 0.486094L1.33084 1.91586L3.6584 1.91586L2.49835 0.486094ZM1.10855 2.20193L0.510102 2.91891C0.377014 3.08712 -0.110259 2.96923 0.0227878 2.78741L2.25417 0.0870152C2.2986 0.0276141 2.4016 0 2.49835 0C2.59448 0 2.68314 0.0276141 2.73506 0.0870152L4.9595 2.77409C5.15176 2.96957 4.60471 3.08257 4.46417 2.90561L3.88763 2.20193L1.10855 2.20193Z" transform="translate(17 39.963413)" id="path23531" fill="#003366" stroke="none" />
    <path d="M0.72563 0.166331C0.72563 -0.0575417 1.27437 -0.0533354 1.27437 0.166331L1.27437 2.84215C1.27437 3.04823 0.72563 3.05696 0.72563 2.84215L0.72563 0.166331Z" transform="translate(21 39.963413)" id="path23533" fill="#003366" stroke="none" />
    <path d="M0.40946 1.63202L0.40946 1.63202L1.54175 1.63202C2.27675 1.63202 2.59622 1.34871 2.58487 1.00016C2.57874 0.618188 2.19243 0.311842 1.54175 0.311842L0.40946 0.311842L0.40946 1.63202ZM0.40946 1.92475L0.40946 2.82661C0.40946 3.04047 0 3.04047 0 2.83151L0 0.162912C0 0.0652778 0.0842731 0 0.207572 0L1.53608 0C2.50622 0 3 0.455632 3 1.00019C3 1.46946 2.69109 1.80892 2.00149 1.90661L2.91 2.7202C3.12284 2.89706 2.81515 3.1012 2.62946 2.94347L1.49677 1.9251L0.40946 1.92475Z" transform="translate(24 39.963413)" id="path23535" fill="#003366" stroke="none" />
    <path d="M0.234173 3C0.0672679 3 0 2.94004 0 2.82805L0 0.164009C0 -0.0546696 0.456326 -0.0546696 0.456326 0.164009L0.456326 2.69373L2.76382 2.69373C3.07873 2.69373 3.07873 3 2.76382 3L0.234173 3Z" transform="translate(28 39.963413)" id="path23537" fill="#003366" stroke="none" />
    <path d="M0.72563 0.166331C0.72563 -0.0575417 1.27437 -0.0533354 1.27437 0.166331L1.27437 2.84215C1.27437 3.04823 0.72563 3.05696 0.72563 2.84215L0.72563 0.166331Z" transform="translate(31 39.963413)" id="path23539" fill="#003366" stroke="none" />
    <path d="M2.57155 0.152041C2.57155 -0.0405199 3 -0.0502323 3 0.152041L3 2.78426C3 3.0134 2.6115 3.03606 2.49246 2.87588L0.384077 0.577664L0.42845 1.21072L0.42845 2.82959C0.42845 3.05453 0 3.05906 0 2.82959L0 0.201912C0 -0.0272356 0.31593 -0.0641282 0.456985 0.105522L2.62776 2.46782L2.57106 1.77489L2.57106 0.152127L2.57155 0.152041Z" transform="translate(34 39.963413)" id="path23541" fill="#003366" stroke="none" />
    <path d="M0.431037 2.68901L2.79752 2.68901C3.04922 2.68901 3.08517 3 2.79752 3L0.275089 3C0.107436 3 0 2.90599 0 2.79279L0 0.203006C0 0.0946578 0.107403 0 0.275089 0L2.8036 0C3.06135 0 3.04922 0.301917 2.79705 0.301917L0.430562 0.301917L0.430562 1.36331L2.68313 1.36331C2.92267 1.36331 2.93481 1.66523 2.68313 1.66523L0.430562 1.66523L0.431037 2.68901Z" transform="translate(39 39.963413)" id="path23543" fill="#003366" stroke="none" />
    <path d="M0.385026 2.22074C0.517885 2.59431 1.08622 2.67563 1.49547 2.67563C1.93062 2.67563 2.60592 2.55868 2.60592 2.10344C2.60592 1.71172 2.06864 1.67932 1.50547 1.63914C0.79945 1.58955 0.0420096 1.53162 0.0420096 0.859916C0.0420096 0.265368 0.820176 0 1.44404 0C1.98132 0 2.65217 0.112417 2.86715 0.625983C2.94379 0.806132 2.59592 0.887457 2.51933 0.734237C2.36541 0.391757 1.81776 0.333442 1.44922 0.333442C1.10658 0.333442 0.44126 0.454921 0.44126 0.864802C0.44126 1.25685 0.953008 1.29735 1.54654 1.33818C2.24773 1.39169 3 1.42402 3 2.09959C3 2.78875 2.12489 3 1.49547 3C0.973734 3 0.175219 2.84286 0.00648708 2.3021C-0.0553277 2.10348 0.343951 2.03608 0.385026 2.22078" transform="translate(44 39.963413)" id="path23545" fill="#003366" stroke="none" />
  </g>
</svg>