<?xml version="1.0" encoding="utf-8"?>
<svg width="98px" height="28px" viewBox="0 0 98 28" version="1.1" xmlns:xlink="http://www.w3.org/1999/xlink" xmlns="http://www.w3.org/2000/svg">
  <defs>
    <path d="M0 0L7.5798 0L7.5798 20.3215L0 20.3215L0 0Z" id="path_1" />
    <path d="M0 0L3.72513 0L3.72513 3.97037L0 3.97037L0 0Z" id="path_2" />
    <clipPath id="mask_1">
      <use xlink:href="#path_1" />
    </clipPath>
    <clipPath id="mask_2">
      <use xlink:href="#path_2" />
    </clipPath>
  </defs>
  <g id="273982-copy">
    <path d="M6.10693 2.36561L3.52837 9.15241L8.66129 9.15241L6.10693 2.36561ZM0 15L4.68106 2.63363C4.90699 2.03967 5.01995 1.63878 5.01995 1.42982C5.01995 1.1618 4.8701 0.946018 4.5681 0.782481C4.34217 0.66437 3.91222 0.53036 3.27939 0.382723L3.27939 0L7.16741 0L13 15L10.8064 15L8.90681 10.0223L3.21023 10.0223L1.42472 15L0 15" transform="translate(6 8)" id="Shape" fill="#0069A6" stroke="none" />
    <path d="M0 11L0 10.0773L6.7269 0.922689L2.81027 0.922689C1.92197 0.922689 1.31088 1.08892 0.973306 1.42138C0.762628 1.62735 0.592608 2.04774 0.464476 2.68134L0.00862431 2.68134L0.00862431 0L9 0L9 0.922689L2.31992 10.0785L5.53429 10.0785C6.62957 10.0785 7.37125 9.96167 7.75811 9.72438C8.14497 9.48828 8.39507 9.02332 8.50719 8.3295L8.99507 8.3295L8.99507 11L0 11" transform="translate(20 11)" id="Path" fill="#0069A6" stroke="none" />
    <path d="M1.80347 11L1.80347 2.53258C1.80347 1.90179 1.5896 1.46165 1.16306 1.21568C0.925163 1.09212 0.538277 0.999144 0 0.936771L0 0.54135L3.60814 0L3.60814 2.75618L3.65499 2.75618C4.23653 0.919118 5.28064 0 6.78853 0C6.88225 0 6.95434 0.00706094 7 0.0223599L7 1.94886C6.59269 1.82765 6.33316 1.76763 6.22382 1.76763C4.48043 1.76763 3.60814 2.9939 3.60814 5.44645L3.60814 11L1.80347 11" transform="translate(38 12)" id="Path" fill="#0069A6" stroke="none" />
    <path d="M4.55199 15C4.55199 15 -10.1816 -8.61647 28 7.85285C28 7.85285 -13.5077 -13.8985 4.55199 15" id="Path" fill="#1EA7E0" stroke="none" />
    <path d="M7.14021 6.73509L7.14021 7.50969C7.14021 7.51085 7.14021 7.512 7.14021 7.5143L7.14021 7.52698L7.13667 7.52698C6.96889 9.25485 6.06971 10.1194 4.43679 10.1194C3.73139 10.1194 2.91375 9.8796 2.47184 9.39893C2.07956 8.9344 1.88224 8.3719 1.88224 7.71256L1.87633 6.03772L7.13076 6.03772C7.13312 6.1115 7.14021 6.18527 7.14021 6.26019L7.14021 6.73509ZM2.81922 1.08467C4.48405 1.0985 5.13746 1.12386 6.12761 2.37452C6.76093 3.17563 6.96534 4.44011 7.05987 5.32767L0.00118149 5.32767L0.00118149 6.73509L0 6.73509L0 7.07398C0 8.3523 0.39937 9.34591 1.19456 10.0525C1.92714 10.6842 2.89484 11 4.09768 11C7.36589 11 9 9.27559 9 5.82794C9 3.9606 8.50492 2.52206 7.51713 1.51347C6.52934 0.504873 5.13509 0 3.33557 0C2.52974 0 1.72391 0.0518704 1.05987 0.153306L1.07877 0.170596L1.04451 0.170596L1.04451 2.34109L1.36944 2.34109C1.46042 1.91229 1.58094 1.62758 1.731 1.48695C1.93659 1.29561 2.28397 1.11464 2.77196 1.08697" transform="translate(29 12)" id="Shape" fill="#0069A6" stroke="none" />
    <g id="Clipped" transform="translate(81 7)">
      <path d="M0 0L7.5798 0L7.5798 20.3215L0 20.3215L0 0Z" id="Path" fill="none" fill-rule="evenodd" stroke="none" />
      <g clip-path="url(#mask_1)">
        <path d="M6.0556 2.55947C5.66811 2.55947 5.33083 2.43422 5.04505 2.18257C4.75926 1.93091 4.61636 1.63055 4.61636 1.28032C4.61636 0.928925 4.75926 0.628561 5.04505 0.376905C5.33083 0.126408 5.66811 0 6.0556 0C6.4418 0 6.77908 0.126408 7.06615 0.376905C7.35194 0.628561 7.49483 0.928925 7.49483 1.28032C7.49483 1.64562 7.3558 1.94947 7.07774 2.19416C6.80096 2.4377 6.45982 2.55947 6.0556 2.55947ZM7.10091 4.72696L7.10091 15.7558C7.10091 16.9862 6.95029 17.9209 6.64777 18.5588C6.11095 19.6675 5.08624 20.2218 3.57491 20.2218C2.3674 20.2218 1.44438 19.94 0.805868 19.3764C0.269052 18.887 0 18.2781 0 17.5464L2.13053 17.5464C2.13053 18.7374 2.70468 19.3335 3.85169 19.3335C4.44257 19.3335 4.83006 19.0145 5.01544 18.3755C5.11714 17.9813 5.16734 17.2657 5.16734 16.2324L5.16734 7.15655C5.16734 6.56394 4.94206 6.1534 4.48892 5.92494C4.25591 5.80317 3.85298 5.71155 3.28398 5.65125L3.28398 5.25927L7.10091 4.72696" transform="translate(0.08496393 0.09973492)" id="Shape" fill="#0069A6" stroke="none" />
      </g>
    </g>
    <path d="M2.65394 2.46629C2.26847 2.46629 1.94458 2.3456 1.6798 2.10311C1.41502 1.86061 1.28325 1.57118 1.28325 1.2337C1.28325 0.895105 1.41502 0.605677 1.6798 0.363183C1.94458 0.121806 2.26847 0 2.65394 0C3.02217 0 3.3399 0.121806 3.60345 0.363183C3.86823 0.605677 4 0.895105 4 1.2337C4 1.58571 3.86823 1.87849 3.60345 2.11428C3.3399 2.34895 3.02217 2.46629 2.65394 2.46629ZM1.81158 15L1.81158 6.89488C1.81158 6.32385 1.5936 5.92826 1.1601 5.70923C0.934729 5.59189 0.548029 5.50361 0 5.4455L0 5.06779L3.66133 4.55487L3.66133 15L1.81158 15" transform="translate(89 7)" id="Shape" fill="#0069A6" stroke="none" />
    <path d="M2.45648 15L2.45648 2.3429C2.45648 1.68988 2.3011 1.23334 1.99281 0.973274C1.68575 0.713204 1.02107 0.515597 0 0.382723L0 0L11.9729 0L11.9803 2.72221L11.2465 2.72221C11.085 1.97835 10.9333 1.52521 10.7878 1.36054C10.5153 1.03346 9.47446 0.868792 8.57301 0.868792L6.04254 0.868792C5.38403 0.868792 4.97462 0.95851 4.81307 1.13681C4.65276 1.31511 4.57137 1.71487 4.57137 2.33722L4.57137 6.71638L7.62224 6.71638C8.51875 6.71638 9.13534 6.54035 9.47076 6.18602C9.6952 5.9657 9.86415 5.53187 9.97636 4.8834L10.5436 4.8834L10.5436 9.49538L9.97636 9.49538C9.83208 8.73221 9.66314 8.25182 9.47076 8.05762C9.1674 7.74303 8.55082 7.58631 7.62224 7.58631L4.57137 7.58631L4.57137 12.8343C4.57137 13.4896 4.70825 13.8836 4.98202 14.0176C5.14233 14.0926 5.66519 14.1301 6.54938 14.1301L9.15384 14.1301C9.92457 14.1301 10.44 13.9813 10.6978 13.6838C10.8901 13.4612 11.0751 12.8899 11.2527 11.9689L12 11.9689L11.9729 15L2.45648 15" transform="translate(44 8)" id="Path" fill="#0069A6" stroke="none" />
    <path d="M1.91217 11L1.91217 2.46314C1.91217 1.86177 1.68573 1.44635 1.23285 1.21568C0.997599 1.09212 0.586231 0.999144 0 0.936771L0 0.54135L3.82308 0L3.82308 3.07981L3.8734 3.07981C4.17155 2.369 4.6043 1.74527 5.16914 1.20392C5.99943 0.402482 6.95425 0 8.03488 0C9.16457 0 9.96215 0.253022 10.4276 0.761421C10.8088 1.19332 11 1.86413 11 2.77265L11 11L9.08909 11L9.08909 3.52348C9.08909 2.70675 9.01361 2.15128 8.86265 1.85824C8.63243 1.36514 8.1242 1.11801 7.34298 1.11801C6.49382 1.11801 5.67864 1.65818 4.89742 2.73735C4.18161 3.72472 3.82308 4.64384 3.82308 5.49117L3.82308 11L1.91217 11" transform="translate(56 12)" id="Path" fill="#0069A6" stroke="none" />
    <path d="M1.80347 11L1.80347 2.53258C1.80347 1.90179 1.5896 1.46165 1.16306 1.21568C0.925163 1.09212 0.537075 0.999144 0 0.936771L0 0.54135L3.60693 0L3.60693 2.75618L3.65499 2.75618C4.23532 0.919118 5.27944 0 6.78733 0C6.88225 0 6.95314 0.00706094 7 0.0223599L7 1.94886C6.59149 1.82765 6.33316 1.76763 6.22262 1.76763C4.47923 1.76763 3.60693 2.9939 3.60693 5.44645L3.60693 11L1.80347 11" transform="translate(76 12)" id="Path" fill="#0069A6" stroke="none" />
    <g id="Clipped" transform="translate(94 8)">
      <path d="M0 0L3.72513 0L3.72513 3.97037L0 3.97037L0 0Z" id="Path" fill="none" fill-rule="evenodd" stroke="none" />
      <g clip-path="url(#mask_2)">
        <path d="M1.60521 0.95537C1.58001 0.987423 1.56837 1.06083 1.56837 1.17664L1.56837 1.62744L1.7254 1.62744C2.01039 1.62744 2.15191 1.50853 2.15191 1.27176C2.15191 1.0081 2.04528 0.87679 1.83009 0.87679C1.71571 0.87679 1.6401 0.902639 1.60521 0.95537ZM0.882089 2.77512L0.882089 2.62417C1.00035 2.61383 1.07596 2.59108 1.10794 2.55696C1.13993 2.52284 1.15641 2.43909 1.15641 2.30571L1.15641 1.1663C1.15641 1.04429 1.13993 0.969846 1.10794 0.942963C1.07596 0.91608 1.00035 0.895401 0.882089 0.878858L0.882089 0.728935L1.79326 0.728935C2.03656 0.728935 2.21685 0.752716 2.33027 0.799244C2.51541 0.878858 2.60652 1.02671 2.60652 1.24384C2.60652 1.40721 2.54255 1.53231 2.41363 1.61606C2.34771 1.66363 2.23139 1.70912 2.06273 1.75151C2.23624 1.86111 2.3545 2.02034 2.41944 2.2261C2.46888 2.39566 2.51832 2.48045 2.56872 2.48045C2.64724 2.48045 2.68698 2.39463 2.68698 2.22299L2.83529 2.22299C2.83529 2.37085 2.80524 2.49389 2.74611 2.59418C2.67535 2.71515 2.57454 2.77512 2.4398 2.77512C2.26047 2.77512 2.13931 2.69034 2.07436 2.52077C2.03462 2.36671 1.99197 2.20852 1.94835 2.04412C1.90279 1.88076 1.80392 1.79804 1.6498 1.79804L1.56837 1.79804L1.56837 2.2871C1.56837 2.43702 1.58194 2.52491 1.60909 2.55282C1.6372 2.57867 1.71862 2.60349 1.85336 2.62417L1.85336 2.77512L0.882089 2.77512ZM0.264627 1.78356C0.264627 2.20231 0.410026 2.55903 0.700825 2.85267C0.991623 3.14631 1.34155 3.29417 1.74964 3.29417C2.15773 3.29417 2.50668 3.14631 2.79748 2.85267C3.08828 2.55903 3.23465 2.20231 3.23465 1.78356C3.23465 1.37102 3.08828 1.01741 2.79361 0.722732C2.50087 0.42909 2.15191 0.282268 1.74964 0.282268C1.3464 0.282268 0.998409 0.42909 0.704702 0.722732C0.410995 1.01741 0.264627 1.37102 0.264627 1.78356ZM1.74964 3.5754C1.27564 3.5754 0.865611 3.4017 0.51956 3.05429C0.172541 2.70688 0 2.28296 0 1.78356C0 1.2852 0.172541 0.863349 0.51956 0.518009C0.865611 0.17267 1.27564 0 1.74964 0C2.22267 0 2.6327 0.17267 2.97972 0.518009C3.32577 0.863349 3.49928 1.2852 3.49928 1.78356C3.49928 2.28296 3.32577 2.70688 2.97972 3.05429C2.6327 3.4017 2.22267 3.5754 1.74964 3.5754" transform="translate(0.22585353 0.20575623)" id="Shape" fill="#0069A6" stroke="none" />
      </g>
    </g>
    <path d="M3.25112 0.728705C3.0289 0.893156 2.65125 1.04776 2.12074 1.07139L2.06936 1.07336C1.4939 1.06942 1.05074 1.01329 0.678227 0.905958L0 1.87789C0.473989 1.94387 0.96596 2 1.50803 2C2.38407 2 3.26012 1.95569 3.98202 1.86903L3.96146 1.85426L4 1.85426L4 0L3.64547 0C3.54656 0.367307 3.41554 0.609552 3.25112 0.728705" transform="translate(72 21)" id="Path" fill="#0069A6" stroke="none" />
    <path d="M4.56417 0.881288C5.26817 0.881288 5.84134 1.12059 6.28368 1.60036C6.67617 2.06631 6.87304 2.62776 6.87304 3.28815L6.87304 3.48949L1.86155 3.48949C2.02478 1.75107 2.92565 0.881288 4.56417 0.881288ZM7.30666 10.1049C7.17084 10.113 7.04873 10.1187 6.9503 10.1187C5.39153 10.1187 4.11809 9.49284 3.12751 8.24338C2.28395 7.17341 1.86155 6.00565 1.86155 4.74009L1.86155 4.26608L9 4.26608L9 3.92668C9 2.64847 8.60127 1.65558 7.80507 0.946867C7.07241 0.315239 6.1055 0 4.90184 0C1.63478 0 0 1.72461 0 5.17153C0 7.03995 0.49467 8.47809 1.48401 9.48708C2.4721 10.4961 3.86515 11 5.66441 11C6.22885 11 6.79205 10.9747 7.30666 10.9252L7.30666 10.1049" transform="translate(68 12)" id="Shape" fill="#0069A6" stroke="none" />
  </g>
</svg>