<?xml version="1.0" encoding="utf-8"?>
<svg width="49px" height="33px" viewBox="0 0 49 33" version="1.1" xmlns:xlink="http://www.w3.org/1999/xlink" xmlns="http://www.w3.org/2000/svg">
  <g id="5d5fbf7789632cf9f36ddc16435276d6_logo_color_white_background_for_site">
    <path d="M35.0004 4.73244C35.0004 3.61356 34.4922 3.15533 33.7367 3.15533C32.5381 3.15533 31.797 4.59809 31.797 6.07061C31.797 7.19128 32.3012 7.62364 33.0811 7.62364C34.3226 7.62364 35.0004 6.23124 35.0004 4.73244L35.0004 4.73244ZM29.7946 6.03159C29.7946 3.43729 31.6534 1.76486 33.7933 1.76486C35.8397 1.76486 37 2.97076 37 4.77713C37 7.36852 35.2672 8.97399 33.0081 8.97399C30.9697 8.97399 29.7946 7.83519 29.7946 6.03159L29.7946 6.03159ZM25.6114 1.87347L26.2583 1.87347C27.13 1.87347 27.384 2.34125 27.3464 3.03717C27.8887 2.31344 28.6487 1.80581 29.4727 1.80581C29.6264 1.80581 29.765 1.83251 29.8955 1.87347L29.5113 3.51782L29.2608 3.51782C28.2942 3.51782 27.5693 3.84088 27.1058 4.21457L25.9849 8.89596L23.9317 8.89596L25.6114 1.87347ZM19.8547 6.71133L20.7143 3.18217L19.917 3.18217L20.2066 1.87347L21.0157 1.87347L21.4675 0L23.5087 0L23.0637 1.87347L24.3808 1.87347L24.0828 3.18217L22.7384 3.18217L21.8886 6.75533C21.7463 7.34098 21.9434 7.661 22.7148 7.661L23.0637 7.661L22.8002 8.82761C22.4972 8.93151 22.1973 9 21.6627 9C20.124 9 19.5199 8.12836 19.8547 6.71133L19.8547 6.71133ZM14.4132 4.63905L17.0049 4.63905C17.0379 4.4542 17.0568 4.27739 17.0568 4.1162C17.0568 3.37337 16.6682 3.00756 16.0481 3.00756C15.2372 3.00756 14.6831 3.64967 14.4132 4.63905L14.4132 4.63905ZM12.2559 6.11225C12.2559 3.84088 13.7268 1.76486 16.1799 1.76486C17.9495 1.76486 18.8364 2.76793 18.8257 4.29122C18.8257 4.76191 18.7407 5.28101 18.5896 5.82018L14.2439 5.82018L14.2439 6.08361C14.2439 7.20553 14.7341 7.62364 15.6597 7.62364C16.3481 7.62364 16.9342 7.44945 17.4613 7.12681L18.1193 7.12681L17.7992 8.47909C17.2711 8.75899 16.5018 8.98672 15.4395 8.98672C13.4049 8.98672 12.2559 7.99527 12.2559 6.11225L12.2559 6.11225ZM1.67738 1.87347L2.32057 1.87347C3.10954 1.87347 3.39805 2.26128 3.41325 2.83434C4.11492 2.26128 4.88044 1.76486 5.89104 1.76486C6.66408 1.76486 7.2191 2.15142 7.40744 2.84679C8.21436 2.20607 9.08178 1.76486 10.0516 1.76486C11.227 1.76486 11.8838 2.64895 11.5163 4.13128L10.353 8.89596L8.99681 8.89596C8.5214 8.89596 8.36737 8.70475 8.53429 8.02764L9.44326 4.13128C9.57355 3.56873 9.41981 3.31333 8.99681 3.31333C8.60261 3.31333 8.11592 3.50287 7.40744 3.92098L7.35808 4.13128L6.19895 8.89596L4.17182 8.89596L5.28809 4.13128C5.41577 3.56873 5.26305 3.31333 4.84164 3.31333C4.4528 3.31333 3.9483 3.50287 3.24431 3.93219L2.05869 8.89596L0 8.89596L1.67738 1.87347L1.67738 1.87347Z" transform="translate(6 23.463415)" id="Fill-4" fill="#1A1919" fill-rule="evenodd" stroke="none" />
    <path d="M7.11542 0C6.39658 0 5.76683 0.454164 5.41922 1.13697L0 11.5686L2.84481 17.0395C3.1326 17.4949 3.54512 17.822 4.01718 17.9436C4.15563 17.9779 4.29578 17.999 4.43409 17.999L4.41556 17.999C4.43678 17.999 4.4546 18 4.4546 18C5.17004 18 5.79427 17.5405 6.14443 16.8606L14.3392 1.07164C14.6262 0.556818 15.075 0.182966 15.5883 0.0484988C15.7196 0.0175331 15.8539 0 16 0L7.11542 0" transform="translate(24 0.46341464)" id="Fill-5" fill="#D8232A" fill-rule="evenodd" stroke="none" />
    <path d="M7.79431 17.9436C8.29392 17.822 8.72847 17.496 9.03036 17.0394L12 11.568L6.34461 1.13551C5.99329 0.473435 5.35556 0.0274332 4.64038 0C4.5157 0.00707041 4.38334 0.020787 4.25954 0.0527453C3.76037 0.176336 3.33159 0.501717 3.03633 0.963839C2.98941 1.0303 0.893578 4.90248 0 6.54452L5.58383 16.8605C5.96082 17.5404 6.60784 18 7.35003 18L7.36552 17.999C7.51795 17.999 7.65812 17.9779 7.79431 17.9436" transform="translate(13 0.46341464)" id="Fill-6" fill="#357EAD" fill-rule="evenodd" stroke="none" />
    <path d="M12.5903 12.3424C12.5903 12.3424 6.52763 1.26103 6.46738 1.13722C6.09206 0.456952 5.43506 0 4.68161 0L4.64184 0.00197876C4.48853 0.00197876 4.34755 0.0204943 4.20983 0.0514477C3.67111 0.185862 3.19814 0.559565 2.89896 1.0763L0 6.39379C2.33071 10.6534 5.17699 15.8671 5.17981 15.875C6.24165 17.8109 8.74125 18.5592 10.7749 17.5524C12.7642 16.5648 13.5543 14.255 12.5903 12.3424" transform="translate(36 0.46341464)" id="Fill-7" fill="#009F56" fill-rule="evenodd" stroke="none" />
    <path d="M15.9923 0L8.01343 0C7.28702 0 6.6537 0.455044 6.29321 1.13768C6.23101 1.25925 0.397733 12.3423 0.397733 12.3423C-0.536015 14.2561 0.225997 16.5654 2.1424 17.5521C4.09712 18.5601 6.51157 17.8092 7.5324 15.8767L12.0611 7.27576L12.0627 7.27039C12.0627 7.27039 15.3247 1.04905 15.3843 0.966068C15.672 0.504097 16.0876 0.178823 16.5713 0.0552726C16.7086 0.0165394 16.8533 0 17 0L15.9923 0" transform="translate(0 0.46341464)" id="Fill-8" fill="#F8EB17" fill-rule="evenodd" stroke="none" />
    <path d="M9 7C8.85972 7 8.71758 6.97891 8.57717 6.94057C8.09839 6.80909 7.68001 6.45421 7.38812 5.95707L4.50502 0L1.61833 5.95707C1.32487 6.45421 0.902467 6.80909 0.41681 6.94057C0.284423 6.97891 0.148164 7 0 7L9 7" transform="translate(20 11.463414)" id="Fill-9" fill="#7F1F6B" fill-rule="evenodd" stroke="none" />
  </g>
</svg>