<?xml version="1.0" encoding="utf-8"?>
<svg width="102px" height="25px" viewBox="0 0 102 25" version="1.1" xmlns:xlink="http://www.w3.org/1999/xlink" xmlns="http://www.w3.org/2000/svg">
  <g id="Page-1">
    <path d="M5.32667 3.61249C5.32667 10.0874 0 11.2991 0 17.5225C0 19.9522 1.50369 22.0562 3.27857 22.3076C3.14905 21.8645 3.10655 21.5224 3.10655 21.0443C3.10655 16.5519 10.198 15.1589 10.198 7.497C10.198 3.83299 7.66012 0.735687 4.69929 0C4.69929 0 5.32464 1.98862 5.32464 3.61043L5.32667 3.61249Z" transform="translate(0.71440476 0.057700917)" id="Path-4" fill="#FF2F2B" stroke="none" />
    <path d="M0 12.4675C0 13.739 0.884405 15.0929 2.03798 15.5339C1.97726 15.3464 1.94893 15.1815 1.94893 14.9054C1.94893 12.4016 9.2225 11.6041 9.2225 5.06119C9.2225 3.25186 8.47976 1.28797 7.00845 0C6.01274 7.43724 7.19002e-16 8.46143 0 12.4675Z" transform="translate(5.591786 8.9065485)" id="Path-5" fill="#6EC248" stroke="none" />
    <path d="M1.78095 0C1.78095 0 2.13107 0.640892 2.13107 1.35597C2.13107 3.6537 0 4.52952 0 6.86435C0 7.96685 0.588929 8.87152 1.42071 9.39701C1.44298 9.19711 1.46321 9.00959 1.51381 8.85297C2.01167 7.23116 4.34714 5.43625 4.34714 2.89123C4.34714 1.36628 3.10452 0.11128 1.78095 0Z" transform="translate(1.779529E-13 2.134934)" id="Path-6" fill="#33ADE1" stroke="none" />
    <path d="M3.24821 11.7236C4.62643 12.9889 5.93381 13.7328 7.82 13.7328C8.86631 13.7328 10.7727 13.2836 10.7727 11.8823C10.7727 11.0724 10.1737 10.6623 9.0019 10.4604L5.71321 9.91632C2.78679 9.4444 1.18595 7.86175 1.18595 5.48983C1.18595 1.60738 4.27226 0 7.64595 0C10.2648 0 12.8411 1.08395 14.6139 3.09524L11.6167 5.28582C10.5724 3.99785 9.04036 3.2498 7.37679 3.2498C6.47214 3.2498 5.13643 3.83711 5.13643 4.87779C5.13643 5.73506 5.82655 6.16576 7.33226 6.41511L8.84607 6.6624C11.9951 7.1817 14.5937 8.17498 14.5937 11.2455C14.5937 16.0821 10.3073 16.9888 7.35857 16.9888C4.675 16.9888 2.15536 16.1047 0 13.7122L3.24821 11.7236ZM24.31 16.9909C19.2687 16.9909 16.318 13.0116 16.318 8.49028C16.318 3.97724 19.2687 2.9285e-15 24.31 2.9285e-15C29.3452 2.9285e-15 32.2939 3.97724 32.2939 8.49028C32.2939 13.0095 29.3432 16.9909 24.31 16.9909ZM24.31 3.38581C21.9988 3.38581 20.2705 4.87985 20.2705 8.49028C20.2705 10.8437 21.2035 13.6009 24.31 13.6009C27.2364 13.6009 28.3475 10.9776 28.3475 8.49028C28.3475 5.96174 27.2364 3.38581 24.31 3.38581ZM45.2119 5.80719C44.6554 4.31314 43.3014 3.38375 41.9212 3.38375C39.7517 3.38375 38.0233 4.88191 38.0233 8.49234C38.0233 10.8437 38.9543 13.6009 42.0629 13.6009C43.1274 13.6009 44.6817 12.789 45.301 11.3403L48.4298 12.8776C47.0758 15.3855 44.7242 16.9888 42.0629 16.9888C37.0215 16.9888 34.0688 13.0116 34.0688 8.49234C34.0688 3.9793 36.8232 0.00206075 41.7492 0.00206075C44.8537 0.00206075 46.8937 1.53732 48.361 4.1998L45.2119 5.80719ZM54.5781 0.455425L58.6601 0.455425L64.6304 16.5354L60.3885 16.5354L59.5911 14.0069L53.7585 14.0069L52.957 16.5354L48.7455 16.5354L54.5781 0.455425ZM58.6358 11.0229L56.6869 4.38321L56.6444 4.38321L54.6894 11.0229L58.6358 11.0229ZM66.1968 0.453364L74.0957 0.453364C77.6475 0.453364 79.8251 2.12669 79.8251 5.73712C79.8251 7.81847 78.5359 9.48562 76.5587 10.075L80.1813 16.5354L75.7613 16.5354L72.6548 10.753L70.1493 10.753L70.1493 16.5354L66.1968 16.5354L66.1968 0.453364ZM70.1493 7.7649L73.7658 7.7649C75.0307 7.74635 75.8746 7.09515 75.8746 5.60111C75.8746 4.10707 75.0307 3.45381 73.7658 3.43114L70.1493 3.43114L70.1493 7.7649Z" transform="translate(21.668928 3.756742)" id="Path-7" fill="#0C0C0C" stroke="none" />
  </g>
</svg>